<svg xmlns="http://www.w3.org/2000/svg" width="17" height="17" viewBox="0 0 17 17">
  <path id="monedas" d="M11.688,0C8.708,0,6.375,1.4,6.375,3.188V5.02a9.087,9.087,0,0,0-1.062-.062C2.333,4.958,0,6.359,0,8.146v5.667C0,15.6,2.333,17,5.313,17c2.42,0,4.414-.924,5.077-2.228a8.978,8.978,0,0,0,1.3.1c2.979,0,5.313-1.4,5.313-3.187v-8.5C17,1.4,14.667,0,11.688,0Zm0,1.417c2.23,0,3.9.935,3.9,1.771s-1.666,1.771-3.9,1.771-3.9-.935-3.9-1.771S9.458,1.417,11.688,1.417ZM5.313,6.375c2.23,0,3.9.935,3.9,1.771s-1.666,1.771-3.9,1.771-3.9-.935-3.9-1.771S3.083,6.375,5.313,6.375Zm-3.9,3.954a7.309,7.309,0,0,0,3.9,1,7.309,7.309,0,0,0,3.9-1v.65c0,.836-1.666,1.771-3.9,1.771s-3.9-.935-3.9-1.771Zm3.9,5.254c-2.23,0-3.9-.935-3.9-1.771v-.65a7.309,7.309,0,0,0,3.9,1,7.309,7.309,0,0,0,3.9-1v.65C9.208,14.648,7.542,15.583,5.313,15.583Zm6.375-2.125a7.557,7.557,0,0,1-1.062-.082v-1.4a9.044,9.044,0,0,0,1.063.068,7.309,7.309,0,0,0,3.9-1v.65c0,.836-1.666,1.771-3.9,1.771Zm0-2.833a7.557,7.557,0,0,1-1.062-.082V9.14a9.044,9.044,0,0,0,1.063.068,7.309,7.309,0,0,0,3.9-1v.65c0,.836-1.666,1.771-3.9,1.771Zm0-2.833A7.58,7.58,0,0,1,10.57,7.7,2.816,2.816,0,0,0,9.351,6.058a8.487,8.487,0,0,0,2.337.318,7.309,7.309,0,0,0,3.9-1v.65c0,.836-1.666,1.771-3.9,1.771Z" fill="#351979"/>
</svg>
