<svg xmlns="http://www.w3.org/2000/svg" width="60" height="60" viewBox="0 0 60 60">
  <g id="Group_1535" data-name="Group 1535" transform="translate(-566 -962)">
    <rect id="Rectangle_592" data-name="Rectangle 592" width="60" height="60" rx="10" transform="translate(566 962)" fill="#5e2f92"/>
    <g id="_x31_0.Linkedin" transform="translate(568 964)">
      <path id="Path_2466" data-name="Path 2466" d="M62.211,60.6V47.048c0-6.66-1.434-11.747-9.2-11.747a8.031,8.031,0,0,0-7.261,3.978h-.092V35.9H38.3V60.6h7.677V48.342c0-3.237.6-6.336,4.579-6.336,3.931,0,3.978,3.654,3.978,6.521V60.552h7.677Z" transform="translate(-15.211 -13.599)" fill="#fff"/>
      <path id="Path_2467" data-name="Path 2467" d="M11.3,36.6h7.678V61.3H11.3Z" transform="translate(-0.699 -14.298)" fill="#fff"/>
      <path id="Path_2468" data-name="Path 2468" d="M14.44,10a4.463,4.463,0,1,0,4.44,4.44A4.441,4.441,0,0,0,14.44,10Z" fill="#fff"/>
    </g>
  </g>
</svg>
