<svg xmlns="http://www.w3.org/2000/svg" width="17" height="17" viewBox="0 0 17 17">
  <path id="chart-tree-map" d="M14.875,6.375H11.333a2.125,2.125,0,0,0,0,4.25h3.542a2.125,2.125,0,0,0,0-4.25Zm0,2.833H11.333a.708.708,0,0,1,0-1.417h3.542a.708.708,0,0,1,0,1.417ZM11.333,4.25h3.542a2.125,2.125,0,0,0,0-4.25H11.333a2.125,2.125,0,1,0,0,4.25Zm0-2.833h3.542a.708.708,0,0,1,0,1.417H11.333a.708.708,0,0,1,0-1.417ZM14.875,12.75H11.333a2.125,2.125,0,0,0,0,4.25h3.542a2.125,2.125,0,0,0,0-4.25Zm0,2.833H11.333a.708.708,0,0,1,0-1.417h3.542a.708.708,0,0,1,0,1.417ZM4.958,9.208H2.833A2.833,2.833,0,0,0,0,12.042v2.125A2.833,2.833,0,0,0,2.833,17H4.958a2.833,2.833,0,0,0,2.833-2.833V12.042A2.833,2.833,0,0,0,4.958,9.208Zm1.417,4.958a1.421,1.421,0,0,1-1.417,1.417H2.833a1.421,1.421,0,0,1-1.417-1.417V12.042a1.421,1.421,0,0,1,1.417-1.417H4.958a1.421,1.421,0,0,1,1.417,1.417ZM4.958,0H2.833A2.833,2.833,0,0,0,0,2.833V4.958A2.833,2.833,0,0,0,2.833,7.792H4.958A2.833,2.833,0,0,0,7.792,4.958V2.833A2.833,2.833,0,0,0,4.958,0ZM6.375,4.958A1.421,1.421,0,0,1,4.958,6.375H2.833A1.421,1.421,0,0,1,1.417,4.958V2.833A1.421,1.421,0,0,1,2.833,1.417H4.958A1.421,1.421,0,0,1,6.375,2.833Z" fill="#351979"/>
</svg>
