<svg xmlns="http://www.w3.org/2000/svg" width="17" height="17" viewBox="0 0 17 17">
  <path id="chart-simple" d="M8.5,0A2.131,2.131,0,0,0,6.375,2.125v12.75a2.125,2.125,0,0,0,4.25,0V2.125A2.131,2.131,0,0,0,8.5,0Zm.708,14.875a.708.708,0,0,1-1.417,0V2.125a.708.708,0,1,1,1.417,0ZM14.875,4.25A2.131,2.131,0,0,0,12.75,6.375v8.5a2.125,2.125,0,0,0,4.25,0v-8.5A2.131,2.131,0,0,0,14.875,4.25Zm.708,10.625a.708.708,0,0,1-1.417,0v-8.5a.708.708,0,1,1,1.417,0ZM2.125,8.5A2.131,2.131,0,0,0,0,10.625v4.25a2.125,2.125,0,0,0,4.25,0v-4.25A2.131,2.131,0,0,0,2.125,8.5Zm.708,6.375a.708.708,0,0,1-1.417,0v-4.25a.708.708,0,1,1,1.417,0Z" fill="#351979"/>
</svg>
