<svg xmlns="http://www.w3.org/2000/svg" width="17" height="17.007" viewBox="0 0 17 17.007">
  <path id="catalog-magazine" d="M5.667,5.484c.03,0-.03,0,0,0ZM2.85,4.243a.708.708,0,0,0,.533.848c.717.164,1.545.3,2.284.393a.708.708,0,0,0,.088-1.411C5.061,3.986,4.37,3.864,3.7,3.71a.708.708,0,0,0-.849.533Zm2.817,6.925c-.03,0,.03,0,0,0Zm.087-1.411C5.064,9.67,4.373,9.549,3.7,9.395a.708.708,0,1,0-.316,1.381c.719.164,1.546.3,2.284.392a.708.708,0,0,0,.087-1.411ZM5.667,8.317c-.03,0,.03,0,0,0Zm.088-1.411C5.062,6.819,4.37,6.7,3.7,6.544a.708.708,0,1,0-.316,1.381c.717.164,1.545.3,2.284.393a.708.708,0,0,0,.088-1.411Zm5.577,4.262c-.03,0,.029,0,0,0Zm3,3.311a21.79,21.79,0,0,1-2.187.46,21.55,21.55,0,0,0,4.176.642A.708.708,0,0,1,16.292,17H16.26A26.246,26.246,0,0,1,8.5,15.283,26.24,26.24,0,0,1,.74,17H.708a.708.708,0,0,1-.03-1.416,21.55,21.55,0,0,0,4.176-.642,21.762,21.762,0,0,1-2.187-.46A3.571,3.571,0,0,1,0,11.043V3.185A3.179,3.179,0,0,1,1.235.66,3.131,3.131,0,0,1,3.943.088,18.515,18.515,0,0,0,8.5.762,18.521,18.521,0,0,0,13.057.088,3.133,3.133,0,0,1,15.765.66,3.181,3.181,0,0,1,17,3.185v7.858a3.57,3.57,0,0,1-2.667,3.437ZM7.792,2.16a21.405,21.405,0,0,1-4.2-.7,1.707,1.707,0,0,0-.424-.053,1.737,1.737,0,0,0-1.066.369,1.772,1.772,0,0,0-.688,1.407v7.858A2.153,2.153,0,0,0,3.029,13.11a21.379,21.379,0,0,0,4.763.687ZM13.97,13.11a2.152,2.152,0,0,0,1.613-2.067V3.185a1.772,1.772,0,0,0-.689-1.407,1.716,1.716,0,0,0-1.49-.316,21.4,21.4,0,0,1-4.2.7V13.8a21.349,21.349,0,0,0,4.762-.687ZM11.333,5.484c-.03,0,.029,0,0,0ZM13.3,3.71c-.672.154-1.364.276-2.056.363a.708.708,0,0,0,.088,1.411c.739-.093,1.566-.229,2.284-.393A.708.708,0,1,0,13.3,3.71ZM11.333,8.317c-.03,0,.029,0,0,0ZM13.3,6.544c-.672.154-1.364.276-2.056.363a.708.708,0,0,0,.088,1.411c.739-.093,1.566-.229,2.284-.393A.708.708,0,1,0,13.3,6.544Zm0,2.851c-.674.154-1.365.276-2.055.362a.708.708,0,0,0,.087,1.411c.737-.092,1.564-.227,2.284-.392A.708.708,0,1,0,13.3,9.395Z" transform="translate(0 0.009)" fill="#351979"/>
</svg>
