<svg id="editar" xmlns="http://www.w3.org/2000/svg" width="17" height="17" viewBox="0 0 17 17">
  <path id="Path_2502" data-name="Path 2502" d="M14.673.672,6.037,9.308A3.518,3.518,0,0,0,5,11.812v.951a.708.708,0,0,0,.708.708H6.66a3.518,3.518,0,0,0,2.5-1.037L17.8,3.8a2.214,2.214,0,0,0,0-3.127A2.262,2.262,0,0,0,14.673.672ZM16.8,2.8,8.162,11.433a2.139,2.139,0,0,1-1.5.622H6.417v-.243a2.139,2.139,0,0,1,.622-1.5l8.636-8.636a.813.813,0,0,1,1.123,0,.8.8,0,0,1,0,1.123Z" transform="translate(-1.458 -0.013)" fill="#351979"/>
  <path id="Path_2503" data-name="Path 2503" d="M16.292,6.36a.708.708,0,0,0-.708.708v3.557H12.75a2.125,2.125,0,0,0-2.125,2.125v2.833H3.542a2.125,2.125,0,0,1-2.125-2.125V3.542A2.125,2.125,0,0,1,3.542,1.417h6.4A.708.708,0,0,0,9.946,0h-6.4A3.546,3.546,0,0,0,0,3.542v9.917A3.546,3.546,0,0,0,3.542,17h8.035a3.519,3.519,0,0,0,2.5-1.037l1.881-1.883A3.519,3.519,0,0,0,17,11.576V7.068A.708.708,0,0,0,16.292,6.36Zm-3.212,8.6a2.107,2.107,0,0,1-1.038.567V12.75a.708.708,0,0,1,.708-.708h2.78a2.136,2.136,0,0,1-.567,1.037Z" fill="#351979"/>
</svg>
