<svg xmlns="http://www.w3.org/2000/svg" width="16.625" height="17" viewBox="0 0 16.625 17">
  <path id="chart-simple" d="M-3.5,0A2.131,2.131,0,0,0-5.625,2.125v12.75A2.131,2.131,0,0,0-3.5,17a2.131,2.131,0,0,0,2.125-2.125V2.125A2.131,2.131,0,0,0-3.5,0Zm.708,14.875a.71.71,0,0,1-.708.708.71.71,0,0,1-.708-.708V2.125A.71.71,0,0,1-3.5,1.417a.71.71,0,0,1,.708.708ZM8.875,4.25A2.131,2.131,0,0,0,6.75,6.375v8.5a2.125,2.125,0,0,0,4.25,0v-8.5A2.131,2.131,0,0,0,8.875,4.25Zm.708,10.625a.708.708,0,0,1-1.417,0v-8.5a.708.708,0,1,1,1.417,0ZM2.684,8.5A2.131,2.131,0,0,0,.559,10.625v4.25a2.125,2.125,0,0,0,4.25,0v-4.25A2.131,2.131,0,0,0,2.684,8.5Zm.708,6.375a.708.708,0,0,1-1.417,0v-4.25a.708.708,0,1,1,1.417,0Z" transform="translate(5.625)" fill="#351979"/>
</svg>
