<svg xmlns="http://www.w3.org/2000/svg" width="17" height="17" viewBox="0 0 17 17">
  <path id="calendar-day" d="M5.667,8.5H4.25A1.418,1.418,0,0,0,2.833,9.917v1.417A1.418,1.418,0,0,0,4.25,12.75H5.667a1.418,1.418,0,0,0,1.417-1.417V9.917A1.418,1.418,0,0,0,5.667,8.5ZM4.25,11.333V9.917H5.667v1.417Zm9.208-9.917H12.75V.708a.708.708,0,0,0-1.417,0v.708H5.667V.708a.708.708,0,1,0-1.417,0v.708H3.542A3.546,3.546,0,0,0,0,4.958v8.5A3.546,3.546,0,0,0,3.542,17h9.917A3.546,3.546,0,0,0,17,13.458v-8.5A3.546,3.546,0,0,0,13.458,1.417ZM3.542,2.833h9.917a2.128,2.128,0,0,1,2.125,2.125v.708H1.417V4.958A2.128,2.128,0,0,1,3.542,2.833Zm9.917,12.75H3.542a2.128,2.128,0,0,1-2.125-2.125V7.083H15.583v6.375A2.128,2.128,0,0,1,13.458,15.583Z" fill="#351979"/>
</svg>
