<svg xmlns="http://www.w3.org/2000/svg" width="17" height="15.583" viewBox="0 0 17 15.583">
  <path id="lista-de-rectangulos" d="M13.458,1H3.542A3.546,3.546,0,0,0,0,4.542v8.5a3.546,3.546,0,0,0,3.542,3.542h9.917A3.546,3.546,0,0,0,17,13.042v-8.5A3.546,3.546,0,0,0,13.458,1Zm2.125,12.042a2.128,2.128,0,0,1-2.125,2.125H3.542a2.128,2.128,0,0,1-2.125-2.125v-8.5A2.128,2.128,0,0,1,3.542,2.417h9.917a2.128,2.128,0,0,1,2.125,2.125ZM13.458,5.25a.709.709,0,0,1-.708.708H7.792a.708.708,0,1,1,0-1.417H12.75A.709.709,0,0,1,13.458,5.25Zm-7.792,0A1.063,1.063,0,1,1,4.6,4.188,1.063,1.063,0,0,1,5.667,5.25Zm7.792,3.542a.709.709,0,0,1-.708.708H7.792a.708.708,0,1,1,0-1.417H12.75A.709.709,0,0,1,13.458,8.792Zm-7.792,0A1.063,1.063,0,1,1,4.6,7.729,1.063,1.063,0,0,1,5.667,8.792Zm7.792,3.542a.709.709,0,0,1-.708.708H7.792a.708.708,0,1,1,0-1.417H12.75A.709.709,0,0,1,13.458,12.333Zm-7.792,0A1.063,1.063,0,1,1,4.6,11.271,1.063,1.063,0,0,1,5.667,12.333Z" transform="translate(0 -1)" fill="#351979"/>
</svg>
