<svg xmlns="http://www.w3.org/2000/svg" width="14.999" height="14.999" viewBox="0 0 14.999 14.999">
  <path id="Path_2514" data-name="Path 2514" d="M-1994.5,688a7.508,7.508,0,0,1-7.5-7.5,7.508,7.508,0,0,1,7.5-7.5,7.508,7.508,0,0,1,7.5,7.5A7.508,7.508,0,0,1-1994.5,688Zm-3.335-7.706a.41.41,0,0,0-.292.121.409.409,0,0,0-.121.292.409.409,0,0,0,.121.292l2.066,2.066a.411.411,0,0,0,.292.121.411.411,0,0,0,.292-.121l4.545-4.545a.416.416,0,0,0,0-.585.41.41,0,0,0-.292-.121.41.41,0,0,0-.292.121l-4.253,4.253-1.774-1.774A.41.41,0,0,0-1997.835,680.294Z" transform="translate(2002 -673)" fill="#f80"/>
</svg>
