<svg id="diseno-fluido" xmlns="http://www.w3.org/2000/svg" width="17" height="17" viewBox="0 0 17 17">
  <path id="Path_2498" data-name="Path 2498" d="M1.417,7.792H9.208a1.417,1.417,0,0,0,1.417-1.417V1.417A1.417,1.417,0,0,0,9.208,0H1.417A1.417,1.417,0,0,0,0,1.417V6.375A1.417,1.417,0,0,0,1.417,7.792Zm0-6.375H9.208V6.375H1.417Z" fill="#351979"/>
  <path id="Path_2499" data-name="Path 2499" d="M20.542,0H18.417A1.417,1.417,0,0,0,17,1.417V6.375a1.417,1.417,0,0,0,1.417,1.417h2.125a1.417,1.417,0,0,0,1.417-1.417V1.417A1.417,1.417,0,0,0,20.542,0Zm0,6.375H18.417V1.417h2.125Z" transform="translate(-4.958)" fill="#351979"/>
  <path id="Path_2500" data-name="Path 2500" d="M3.542,13H1.417A1.417,1.417,0,0,0,0,14.417v4.958a1.417,1.417,0,0,0,1.417,1.417H3.542a1.417,1.417,0,0,0,1.417-1.417V14.417A1.417,1.417,0,0,0,3.542,13Zm0,6.375H1.417V14.417H3.542Z" transform="translate(0 -3.792)" fill="#351979"/>
  <path id="Path_2501" data-name="Path 2501" d="M18.208,13H10.417A1.417,1.417,0,0,0,9,14.417v4.958a1.417,1.417,0,0,0,1.417,1.417h7.792a1.417,1.417,0,0,0,1.417-1.417V14.417A1.417,1.417,0,0,0,18.208,13Zm0,6.375H10.417V14.417h7.792Z" transform="translate(-2.625 -3.792)" fill="#351979"/>
</svg>
