<svg id="chart-histogram" xmlns="http://www.w3.org/2000/svg" width="17" height="17" viewBox="0 0 17 17">
  <path id="Path_2523" data-name="Path 2523" d="M16.292,15.583H3.542a2.125,2.125,0,0,1-2.125-2.125V.708A.708.708,0,1,0,0,.708v12.75A3.546,3.546,0,0,0,3.542,17h12.75a.708.708,0,1,0,0-1.417Z" transform="translate(0 0)" fill="#351979"/>
  <path id="Path_2524" data-name="Path 2524" d="M5.708,17.375a.708.708,0,0,0,.708-.708V11.708a.708.708,0,0,0-1.417,0v4.958A.708.708,0,0,0,5.708,17.375Z" transform="translate(-1.458 -3.208)" fill="#351979"/>
  <path id="Path_2525" data-name="Path 2525" d="M10,9.708v6.375a.708.708,0,1,0,1.417,0V9.708a.708.708,0,1,0-1.417,0Z" transform="translate(-2.917 -2.625)" fill="#351979"/>
  <path id="Path_2526" data-name="Path 2526" d="M15,12.708v4.25a.708.708,0,1,0,1.417,0v-4.25a.708.708,0,0,0-1.417,0Z" transform="translate(-4.375 -3.5)" fill="#351979"/>
  <path id="Path_2527" data-name="Path 2527" d="M20,8.708v7.083a.708.708,0,1,0,1.417,0V8.708a.708.708,0,1,0-1.417,0Z" transform="translate(-5.833 -2.333)" fill="#351979"/>
  <path id="Path_2528" data-name="Path 2528" d="M5.708,6.375a.708.708,0,0,0,.5-.207l2.54-2.54a.726.726,0,0,1,1,0l1.538,1.538a2.125,2.125,0,0,0,3,0l3.957-3.957a.708.708,0,1,0-1-1L13.293,4.164a.708.708,0,0,1-1,0L10.752,2.626a2.125,2.125,0,0,0-3,0l-2.54,2.54a.708.708,0,0,0,.5,1.209Z" transform="translate(-1.458 0)" fill="#351979"/>
</svg>
